<?xml version="1.0" encoding="utf-8"?>
<!-- Generator: Adobe Illustrator 24.1.2, SVG Export Plug-In . SVG Version: 6.00 Build 0)  -->
<svg version="1.1" id="Layer_1" xmlns="http://www.w3.org/2000/svg" xmlns:xlink="http://www.w3.org/1999/xlink" x="0px" y="0px"
	 viewBox="0 0 317.1 309" style="enable-background:new 0 0 317.1 309;" xml:space="preserve">
<style type="text/css">
	.st0{fill:#F76809;}
	.st1{fill:#F89F1B;}
	.st2{fill:#FFFFFF;}
</style>
<g>
	<path class="st0" d="M98.2,249.7c2.4,1.2,4.4,2.2,6.5,3.1c13,5.7,26.5,9.3,40.7,10.6c25.5,2.3,49.4-2.7,71.8-14.9
		c19.8-10.7,35.3-26,46.3-45.6c1.6-2.9,3.1-5.8,4.5-8.8c0.9-2,2.2-2.7,3.9-2.1c1.7,0.6,2.5,2,1.9,4c-2.4,9.5-5.8,18.5-10.4,27.1
		c-6,11.3-13.5,21.4-22.6,30.4c-13.6,13.4-29.4,23.2-47.3,29.6c-13,4.7-26.3,7.4-40.2,7.9c-32.6,1.3-62-7.7-88-27.3
		c-25.4-19.2-41.4-44.6-47.8-75.8c-2.7-13-3-26.2-1.1-39.3c0.3-1.9-0.2-3.7-0.3-5.6c-0.5-18,2.6-35.4,9.6-52
		c4.9-11.7,11.5-22.2,19.6-31.9c9.8-11.8,21.8-21.2,35-28.7c10.9-6.2,22.8-10.1,35.1-12.4c8.5-1.6,17.2-2.4,25.8-1.9
		c25.5,1.3,48.4,9.7,68.1,26c16.9,14,28.8,31.4,35.7,52.3c1,3,1,2.9,4.1,3.1c11.3,0.9,22.3,3.2,32.3,8.8c12.7,7.2,19.6,18.4,22,32.6
		c1.8,11.2,0.9,22.3-1.5,33.3c-3.3,15.5-8.6,30.3-15.8,44.5c-1,2.1-2.3,4-3.6,6c-0.3,0.5-0.6,1.2-1.3,0.9c-0.6-0.3-0.3-1-0.2-1.6
		c1-5.4,2.2-10.8,3.1-16.2c1-6.1,1.7-12.3,0.2-18.5c-1-4.2-3-7.5-7.4-9c-1.5-0.5-0.7-1.4-0.3-2.1c2.5-5.1,4.7-10.3,6.2-15.9
		c1.7-6.2,2.5-12.5,1.5-19c-1.4-9.4-6.6-16.3-14.7-21c-5.5-3.3-11.5-5.3-17.8-6.2c-1.9-0.3-2.2,0-2,1.9c0.7,5.4,1.1,10.8,1.1,16.2
		c-0.1,16.7-3.5,32.7-10.2,48c-6.7,15.3-16,28.8-28.2,40.2c-18.8,17.8-41.1,28.7-66.8,32.3c-15.4,2.2-30.5,1.2-45.5-2.6
		c-0.6-0.1-1.1-0.3-1.7-0.4C98.9,249.5,98.8,249.6,98.2,249.7z M221.1,144.2c0.2-5.3-0.7-10.5-1.6-15.6c-1.6-8.4-2.4-16.9-5.4-25
		c-4-10.7-9.2-20.7-16.9-29.2c-7.9-8.7-17.7-14.7-28.7-18.5c-13-4.6-26.3-5.5-39.9-4.5c-11.6,0.9-22.4,4.4-32.7,9.6
		C85,66.6,75.4,73.7,67.1,82.7c-4.9,5.3-8.9,11.3-11.7,17.9c-5.1,12-6.5,24.5-5.5,37.4c0.8,10.9,2.7,21.7,6.4,32
		c2.7,7.6,6.5,14.7,12.3,20.5c6,6.1,13.4,9.7,21.6,12c14.7,4.1,29.8,4.1,44.8,2.9c12.4-1,24.8-2.6,37.1-4.1c7.8-1,15.3-3.1,21.4-8.7
		c1.1-1,2-0.6,2.6,0.7c0.8,1.7,1,3.6,1.3,5.4c0.4,2.6,0.6,5.1,1.4,7.6c0.3,0.8,0.4,1.9,1.5,2.1c1.1,0.3,1.8-0.6,2.4-1.4
		c1.1-1.5,2.2-3,3.1-4.7C216,184.4,220.4,164.8,221.1,144.2z"/>
	<path class="st1" d="M108.9,234.1c-8.6,4.8-16.7,6.7-22.3,7.6c-2,0-4.9-0.3-8.2-1.2c-6.2-1.7-10.3-4.8-14-7.8
		c-8.4-6.8-13.2-10.6-19.4-17.9c-12.5-14.5-18.6-28.2-19.8-31.1c-7.3-16.9-8.7-31.1-9-35.5c-0.2-2.5-0.3-4.4-0.3-5.6
		c-0.5-18.1,2.6-35.4,9.6-52.1c4.9-11.7,11.6-22.2,19.7-32C55,46.8,67,37.4,80.2,29.8c10.9-6.3,22.8-10.1,35.2-12.4
		c8.6-1.6,17.2-2.4,25.9-1.9c25.6,1.3,48.5,9.7,68.3,26.1c0,0,12.7,9.7,4.5,46.6l-2.7,8.5c-3.6-8.2-8.1-15.8-14.2-22.4
		c-7.9-8.7-17.7-14.7-28.8-18.6c-13-4.6-26.4-5.5-40-4.5c-11.6,0.9-22.5,4.4-32.8,9.6c-10.8,5.5-20.5,12.6-28.7,21.6
		c-4.9,5.3-8.9,11.3-11.7,18c-5.1,12-6.5,24.5-5.6,37.5c0.8,11,2.7,21.7,6.4,32.1c2.7,7.6,6.6,14.7,12.3,20.5
		c7.6,7.8,16.3,10.4,21.6,12.1c18,5.6,39.1,3.5,44.9,2.9l9.7-1c-4.6,5-10.1,10.5-16.7,15.9C121.2,225.9,114.7,230.5,108.9,234.1z
		 M100.5,250.1"/>
	<path class="st2" d="M221.2,144.1c0.2-6.2-1.1-12.1-2.1-18.2c-1.5-9.4-3.1-18.7-6.9-27.5c-3.9-8.8-8.5-17.1-15-24.2
		c-9.7-10.5-21.7-17.2-35.5-20.7c-9.7-2.5-19.5-3.2-29.5-2.7c-6.2,0.3-12.3,1-18.2,2.7c-17.8,5.1-33.2,14.2-46.1,27.6
		c-7.9,8.2-13.4,17.8-16.3,28.8c-2.8,10.5-3.1,21.1-1.9,31.9c1.2,10.9,3.3,21.5,7.5,31.7c6.1,14.9,16.7,24.8,32.4,29
		c13.8,3.8,27.9,4.4,42.1,3.2c13.2-1.1,26.5-2.7,39.7-4.2c8.1-1,16-3.1,22.3-8.8c1.1-1,2-0.6,2.6,0.6c0.8,1.6,1,3.3,1.3,5.1
		c0.4,2.8,0.6,5.6,1.5,8.2c0.3,0.8,0.5,1.7,1.5,1.9c1.1,0.2,1.7-0.5,2.2-1.2c0.9-1.3,1.9-2.7,2.7-4.1
		C216,184.9,220.4,165,221.2,144.1z"/>
	<path class="st0" d="M150.8,160.2c3.2-2.8,5.5-6.2,8.1-9.4c8.2-10.2,7.4-26.8-2.3-37c-8-8.4-17.7-11.4-29.1-9.4
		c-0.4,0.1-0.8,0.1-1.1,0.2c0,0-0.1-0.1-0.2-0.1c0-0.1,0-0.3,0-0.3c5.7-3.8,11-8.3,18.2-9c14.1-1.4,32.2,4.5,39.5,20.2
		c7.7,16.5-0.1,36.2-17.3,42.4c-4.6,1.7-9.6,2.1-14.4,2.8C151.8,160.6,151.3,160.6,150.8,160.2z"/>
</g>
<path class="st0" d="M79.9,127.8c5-3.2,9.5-7.2,15.9-7.4c8.6-0.3,16.7,1.5,23.4,7.1c8,6.7,11.3,15.5,8.8,25.7
	c-2.5,10.3-9.4,16.5-19.9,18.5c-2.6,0.5-5.3,1.1-8.5,1.1c2.7-2.5,4.6-5.1,6.6-7.5c8.1-9.9,5.6-27.3-7.8-34.7
	c-5.3-2.9-10.9-3.9-16.9-2.7c-0.4,0.1-0.8,0.1-1.1,0.2C80.3,128.1,80.2,128,79.9,127.8z"/>
<g>
	<path class="st0" d="M-336.3,252.7c2.4,1.2,4.4,2.2,6.5,3.1c13,5.7,26.5,9.3,40.7,10.6c25.5,2.3,49.4-2.7,71.8-14.9
		c19.8-10.7,35.3-26,46.3-45.6c1.6-2.9,3.1-5.8,4.5-8.8c0.9-2,2.2-2.7,3.9-2.1c1.7,0.6,2.5,2,1.9,4c-2.4,9.5-5.8,18.5-10.4,27.1
		c-6,11.3-13.5,21.4-22.6,30.4c-13.6,13.4-29.4,23.2-47.3,29.6c-13,4.7-26.3,7.4-40.2,7.9c-32.6,1.3-62-7.7-88-27.3
		c-25.4-19.2-41.4-44.6-47.8-75.8c-2.7-13-3-26.2-1.1-39.3c0.3-1.9-0.2-3.7-0.3-5.6c-0.5-18,2.6-35.4,9.6-52
		c4.9-11.7,11.5-22.2,19.6-31.9c9.8-11.8,21.8-21.2,35-28.7c10.9-6.2,22.8-10.1,35.1-12.4c8.5-1.6,17.2-2.4,25.8-1.9
		c25.5,1.3,48.4,9.7,68.1,26c16.9,14,28.8,31.4,35.7,52.3c1,3,1,2.9,4.1,3.1c11.3,0.9,22.3,3.2,32.3,8.8c12.7,7.2,19.6,18.4,22,32.6
		c1.8,11.2,0.9,22.3-1.5,33.3c-3.3,15.5-8.6,30.3-15.8,44.5c-1,2.1-2.3,4-3.6,6c-0.3,0.5-0.6,1.2-1.3,0.9c-0.6-0.3-0.3-1-0.2-1.6
		c1-5.4,2.2-10.8,3.1-16.2c1-6.1,1.7-12.3,0.2-18.5c-1-4.2-3-7.5-7.4-9c-1.5-0.5-0.7-1.4-0.3-2.1c2.5-5.1,4.7-10.3,6.2-15.9
		c1.7-6.2,2.5-12.5,1.5-19c-1.4-9.4-6.6-16.3-14.7-21c-5.5-3.3-11.5-5.3-17.8-6.2c-1.9-0.3-2.2,0-2,1.9c0.7,5.4,1.1,10.8,1.1,16.2
		c-0.1,16.7-3.5,32.7-10.2,48c-6.7,15.3-16,28.8-28.2,40.2c-18.8,17.8-41.1,28.7-66.8,32.3c-15.4,2.2-30.5,1.2-45.5-2.6
		c-0.6-0.1-1.1-0.3-1.7-0.4C-335.6,252.5-335.7,252.6-336.3,252.7z M-213.4,147.2c0.2-5.3-0.7-10.5-1.6-15.6
		c-1.6-8.4-2.4-16.9-5.4-25c-4-10.7-9.2-20.7-16.9-29.2c-7.9-8.7-17.7-14.7-28.7-18.5c-13-4.6-26.3-5.5-39.9-4.5
		c-11.6,0.9-22.4,4.4-32.7,9.6c-10.8,5.5-20.4,12.6-28.7,21.6c-4.9,5.3-8.9,11.3-11.7,17.9c-5.1,12-6.5,24.5-5.5,37.4
		c0.8,10.9,2.7,21.7,6.4,32c2.7,7.6,6.5,14.7,12.3,20.5c6,6.1,13.4,9.7,21.6,12c14.7,4.1,29.8,4.1,44.8,2.9
		c12.4-1,24.8-2.6,37.1-4.1c7.8-1,15.3-3.1,21.4-8.7c1.1-1,2-0.6,2.6,0.7c0.8,1.7,1,3.6,1.3,5.4c0.4,2.6,0.6,5.1,1.4,7.6
		c0.3,0.8,0.4,1.9,1.5,2.1c1.1,0.3,1.8-0.6,2.4-1.4c1.1-1.5,2.2-3,3.1-4.7C-218.6,187.4-214.1,167.8-213.4,147.2z"/>
	<path class="st1" d="M-325.6,237.1c-8.6,4.8-16.7,6.7-22.3,7.6c-2,0-4.9-0.3-8.2-1.2c-6.2-1.7-10.3-4.8-14-7.8
		c-8.4-6.8-13.2-10.6-19.4-17.9c-12.5-14.5-18.6-28.2-19.8-31.1c-7.3-16.9-8.7-31.1-9-35.5c-0.2-2.5-0.3-4.4-0.3-5.6
		c-0.5-18.1,2.6-35.4,9.6-52.1c4.9-11.7,11.6-22.2,19.7-32c9.9-11.9,21.8-21.2,35.1-28.8c10.9-6.3,22.8-10.1,35.2-12.4
		c8.6-1.6,17.2-2.4,25.9-1.9c25.6,1.3,48.5,9.7,68.3,26.1c0,0,12.7,9.7,4.5,46.6l-2.7,8.5c-3.6-8.2-8.1-15.8-14.2-22.4
		c-7.9-8.7-17.7-14.7-28.8-18.6c-13-4.6-26.4-5.5-40-4.5c-11.6,0.9-22.5,4.4-32.8,9.6c-10.8,5.5-20.5,12.6-28.7,21.6
		c-4.9,5.3-8.9,11.3-11.7,18c-5.1,12-6.5,24.5-5.6,37.5c0.8,11,2.7,21.7,6.4,32.1c2.7,7.6,6.6,14.7,12.3,20.5
		c7.6,7.8,16.3,10.4,21.6,12.1c18,5.6,39.1,3.5,44.9,2.9l9.7-1c-4.6,5-10.1,10.5-16.7,15.9C-313.3,228.9-319.8,233.5-325.6,237.1z
		 M-334,253.1"/>
	<path class="st2" d="M-213.4,147.1c0.2-6.2-1.1-12.1-2.1-18.2c-1.5-9.4-3.1-18.7-6.9-27.5c-3.9-8.8-8.5-17.1-15-24.2
		c-9.7-10.5-21.7-17.2-35.5-20.7c-9.7-2.5-19.5-3.2-29.5-2.7c-6.2,0.3-12.3,1-18.2,2.7c-17.8,5.1-33.2,14.2-46.1,27.6
		c-7.9,8.2-13.4,17.8-16.3,28.8c-2.8,10.5-3.1,21.1-1.9,31.9c1.2,10.9,3.3,21.5,7.5,31.7c6.1,14.9,16.7,24.8,32.4,29
		c13.8,3.8,27.9,4.4,42.1,3.2c13.2-1.1,26.5-2.7,39.7-4.2c8.1-1,16-3.1,22.3-8.8c1.1-1,2-0.6,2.6,0.6c0.8,1.6,1,3.3,1.3,5.1
		c0.4,2.8,0.6,5.6,1.5,8.2c0.3,0.8,0.5,1.7,1.5,1.9c1.1,0.2,1.7-0.5,2.2-1.2c0.9-1.3,1.9-2.7,2.7-4.1
		C-218.6,187.9-214.1,168-213.4,147.1z"/>
	<path class="st0" d="M-283.7,163.2c3.2-2.8,5.5-6.2,8.1-9.4c8.2-10.2,7.4-26.8-2.3-37c-8-8.4-17.7-11.4-29.1-9.4
		c-0.4,0.1-0.8,0.1-1.1,0.2c0,0-0.1-0.1-0.2-0.1c0-0.1,0-0.3,0-0.3c5.7-3.8,11-8.3,18.2-9c14.1-1.4,32.2,4.5,39.5,20.2
		c7.7,16.5-0.1,36.2-17.3,42.4c-4.6,1.7-9.6,2.1-14.4,2.8C-282.7,163.6-283.2,163.6-283.7,163.2z"/>
</g>
<path class="st0" d="M-353.6,127.8c5-3.2,9.5-7.2,15.9-7.4c8.6-0.3,16.7,1.5,23.4,7.1c8,6.7,11.3,15.5,8.8,25.7
	c-2.5,10.3-9.4,16.5-19.9,18.5c-2.6,0.5-5.3,1.1-8.5,1.1c2.7-2.5,4.6-5.1,6.6-7.5c8.1-9.9,5.6-27.3-7.8-34.7
	c-5.3-2.9-10.9-3.9-16.9-2.7c-0.4,0.1-0.8,0.1-1.1,0.2C-353.3,128.1-353.3,128-353.6,127.8z"/>
<rect x="-397.7" y="327.1" style="fill:none;" width="251.8" height="51.2"/>
<text transform="matrix(1 0 0 1 -397.7401 361.7601)" style="fill:#1CCEB8; font-family:'Poppins-ExtraBold'; font-size:46.8864px;">TELOCREO</text>
</svg>
